# File created by Blade
# Date/Time:  Mon Sep 22 16:45:27 2014
# Frame Rate: 120.000 fps
#------------------------------------------------------
:FULLY-SPECIFIED
:DEGREES
1485
root 3.938267 37.196858 2.216889 -25.288915 0.748477 13.705247
RightUpLeg 24.172727 -3.978743 -9.355909
RightLeg 18.393242 -0.000000 -0.000000
RightFoot -24.785130 -16.371763 9.593033
RightToeBase 6.911228 -0.000000 -0.000000
LeftUpLeg -70.631157 5.186247 -7.789547
LeftLeg 100.359034 -0.000000 -0.000000
LeftFoot 9.515827 21.686597 -26.421358
LeftToeBase 2.773198 -0.000000 -0.000000
Spine 29.095163 14.478500 -0.949683
RightShoulder 3.564023 -14.896704 -17.721855
RightArm 26.934641 17.276805 48.810472
RightForeArm 27.346669 -0.000000 88.576673
RightHand 7.638398 -0.000000 -27.114529
RightHandThumb1 -24.326973 -0.000000 -32.862282
LeftShoulder -32.798698 34.921713 -9.598295
LeftArm 24.629151 -10.652369 -74.131127
LeftForeArm 31.058330 -0.000000 17.224485
LeftHand -15.978981 -0.000000 -15.472698
LeftHandThumb1 -26.253704 0.000000 33.147579
Head 16.091582 -4.998711 -7.566901
1486
root 3.926202 37.192224 2.215697 -25.339073 0.727422 13.636674
RightUpLeg 24.248680 -4.052888 -9.292580
RightLeg 18.320150 -0.000000 -0.000000
RightFoot -24.526027 -16.569917 9.189842
RightToeBase 6.366458 -0.000000 -0.000000
LeftUpLeg -70.625683 5.382880 -7.921702
LeftLeg 100.197987 -0.000000 -0.000000
LeftFoot 9.128966 21.653947 -26.408321
LeftToeBase 2.696574 -0.000000 -0.000000
Spine 29.161491 14.397785 -0.903921
RightShoulder 3.604911 -14.823403 -17.708550
RightArm 27.068427 17.330180 48.969550
RightForeArm 27.730199 0.000000 88.400253
RightHand 7.685395 -0.000000 -26.448006
RightHandThumb1 -24.326973 -0.000000 -32.862282
LeftShoulder -32.830614 34.965465 -9.635760
LeftArm 24.552669 -10.653815 -74.120307
LeftForeArm 31.390816 -0.000000 17.284700
LeftHand -15.861103 -0.000000 -15.742811
LeftHandThumb1 -26.253704 0.000000 33.147579
Head 15.984267 -4.947163 -7.498731
1487
root 3.917602 37.186665 2.214145 -25.366859 0.726792 13.601939
RightUpLeg 24.318016 -4.139332 -9.285018
RightLeg 18.206325 -0.000000 -0.000000
RightFoot -23.581016 -17.344055 7.764061
RightToeBase 4.169989 -0.000000 -0.000000
LeftUpLeg -70.640125 5.562749 -8.076926
LeftLeg 100.051026 -0.000000 -0.000000
LeftFoot 8.764540 21.563949 -26.548205
LeftToeBase 2.564930 -0.000000 -0.000000
Spine 29.203134 14.333099 -0.898863
RightShoulder 3.608332 -14.768593 -17.682327
RightArm 27.219125 17.372516 49.117076
RightForeArm 27.996253 -0.000000 88.223235
RightHand 7.701145 -0.000000 -25.731130
RightHandThumb1 -24.326973 -0.000000 -32.862282
LeftShoulder -32.857723 35.000509 -9.654888
LeftArm 24.496702 -10.596581 -74.080745
LeftForeArm 31.817947 -0.000000 17.290858
LeftHand -15.842356 -0.000000 -15.778726
LeftHandThumb1 -26.253704 0.000000 33.147579
Head 15.878582 -4.895538 -7.408634
1488
root 3.908125 37.182869 2.211595 -25.401161 0.741568 13.551461
RightUpLeg 24.383814 -4.195656 -9.244116
RightLeg 18.143263 -0.000000 -0.000000
RightFoot -23.510052 -17.398000 7.627293
RightToeBase 4.088389 -0.000000 -0.000000
LeftUpLeg -70.639102 5.764746 -8.254255
LeftLeg 99.890924 -0.000000 -0.000000
LeftFoot 8.518407 21.497885 -26.432289
LeftToeBase 2.557105 -0.000000 -0.000000
Spine 29.263230 14.273410 -0.867836
RightShoulder 3.595846 -14.735783 -17.627002
RightArm 27.365228 17.452183 49.244828
RightForeArm 28.217314 -0.000000 88.058331
RightHand 7.672444 -0.000000 -25.023606
RightHandThumb1 -24.326973 -0.000000 -32.862282
LeftShoulder -32.851785 35.014485 -9.651051
LeftArm 24.437785 -10.565583 -74.039936
LeftForeArm 32.114344 0.000000 17.299156
LeftHand -15.818997 -0.000000 -15.946928
LeftHandThumb1 -26.253704 0.000000 33.147579
Head 15.786029 -4.884234 -7.340034
1489
root 3.895320 37.178269 2.210215 -25.438063 0.761814 13.477960
RightUpLeg 24.455487 -4.254269 -9.165724
RightLeg 18.087661 -0.000000 -0.000000
RightFoot -23.571482 -17.329087 7.676798
RightToeBase 4.264316 -0.000000 -0.000000
LeftUpLeg -70.634180 5.952957 -8.377991
LeftLeg 99.762385 -0.000000 -0.000000
LeftFoot 8.279849 21.361795 -26.439423
LeftToeBase 2.553849 -0.000000 -0.000000
Spine 29.322307 14.225251 -0.805584
RightShoulder 3.578922 -14.690113 -17.566848
RightArm 27.439590 17.496648 49.312759
RightForeArm 28.456763 0.000000 87.903280
RightHand 7.759639 0.000000 -24.289657
RightHandThumb1 -24.326973 -0.000000 -32.862282
LeftShoulder -32.849917 35.043448 -9.649983
LeftArm 24.428997 -10.575428 -74.008272
LeftForeArm 32.381192 -0.000000 17.306180
LeftHand -15.810186 -0.000000 -16.299070
LeftHandThumb1 -26.253704 0.000000 33.147579
Head 15.721914 -4.897423 -7.284761
1490
root 3.883696 37.173073 2.207742 -25.460472 0.774751 13.404374
RightUpLeg 24.497754 -4.294357 -9.075288
RightLeg 18.049696 -0.000000 -0.000000
RightFoot -23.551037 -17.341708 7.723251
RightToeBase 4.159810 -0.000000 -0.000000
LeftUpLeg -70.651609 6.153467 -8.500202
LeftLeg 99.643558 -0.000000 -0.000000
LeftFoot 8.119137 21.270776 -26.566648
LeftToeBase 2.506179 -0.000000 -0.000000
Spine 29.365963 14.191014 -0.733378
RightShoulder 3.553574 -14.696740 -17.512562
RightArm 27.534379 17.545406 49.374809
RightForeArm 28.606941 0.000000 87.761451
RightHand 7.713009 0.000000 -23.623626
RightHandThumb1 -24.326973 -0.000000 -32.862282
LeftShoulder -32.853070 35.034578 -9.641092
LeftArm 24.410683 -10.617942 -73.986969
LeftForeArm 32.734270 -0.000000 17.319495
LeftHand -15.813301 0.000000 -16.614260
LeftHandThumb1 -26.253704 0.000000 33.147579
Head 15.668798 -4.891358 -7.225249
1491
root 3.871978 37.167544 2.204080 -25.466267 0.775877 13.332701
RightUpLeg 24.504598 -4.356869 -8.992732
RightLeg 18.043555 -0.000000 -0.000000
RightFoot -23.579768 -17.414963 7.695000
RightToeBase 4.326893 -0.000000 -0.000000
LeftUpLeg -70.677615 6.333594 -8.602904
LeftLeg 99.547137 -0.000000 -0.000000
LeftFoot 7.952295 21.198812 -26.736800
LeftToeBase 2.566901 -0.000000 -0.000000
Spine 29.387663 14.176334 -0.645644
RightShoulder 3.542273 -14.698062 -17.461417
RightArm 27.562115 17.567885 49.367704
RightForeArm 28.805037 -0.000000 87.645220
RightHand 7.725316 -0.000000 -23.200739
RightHandThumb1 -24.326973 -0.000000 -32.862282
LeftShoulder -32.834823 35.016029 -9.630538
LeftArm 24.376658 -10.717063 -73.980678
LeftForeArm 33.202006 -0.000000 17.354051
LeftHand -15.823154 0.000000 -16.698175
LeftHandThumb1 -26.253704 0.000000 33.147579
Head 15.640778 -4.863251 -7.179836
1492
root 3.859022 37.160068 2.199054 -25.457466 0.780122 13.254168
RightUpLeg 24.480691 -4.451265 -8.904049
RightLeg 18.062047 -0.000000 -0.000000
RightFoot -23.640549 -17.480131 7.616256
RightToeBase 4.384151 -0.000000 -0.000000
LeftUpLeg -70.725171 6.584355 -8.738007
LeftLeg 99.458165 -0.000000 -0.000000
LeftFoot 7.822973 21.201547 -26.839043
LeftToeBase 2.603501 -0.000000 -0.000000
Spine 29.397124 14.168656 -0.554024
RightShoulder 3.515185 -14.738533 -17.419394
RightArm 27.615758 17.603038 49.366886
RightForeArm 29.069295 -0.000000 87.517686
RightHand 7.593825 -0.000000 -22.544965
RightHandThumb1 -24.326973 -0.000000 -32.862282
LeftShoulder -32.827025 34.982444 -9.612047
LeftArm 24.342348 -10.838817 -73.988062
LeftForeArm 33.649649 0.000000 17.432787
LeftHand -15.808761 0.000000 -16.713647
LeftHandThumb1 -26.253704 0.000000 33.147579
Head 15.619334 -4.847318 -7.140338
1493
root 3.842701 37.150082 2.189382 -25.408048 0.765257 13.160729
RightUpLeg 24.391098 -4.530929 -8.769536
RightLeg 18.109636 -0.000000 -0.000000
RightFoot -23.720626 -17.561392 7.605611
RightToeBase 4.607743 -0.000000 -0.000000
LeftUpLeg -70.818470 6.885354 -8.869394
LeftLeg 99.380646 -0.000000 -0.000000
LeftFoot 7.738317 21.225564 -26.890009
LeftToeBase 2.491732 -0.000000 -0.000000
Spine 29.363366 14.182393 -0.450973
RightShoulder 3.480383 -14.785180 -17.364846
RightArm 27.653481 17.635188 49.350568
RightForeArm 29.416798 -0.000000 87.402902
RightHand 7.600356 0.000000 -22.004446
RightHandThumb1 -24.326973 -0.000000 -32.862282
LeftShoulder -32.816967 34.928785 -9.583505
LeftArm 24.306799 -11.000966 -74.004642
LeftForeArm 34.023531 0.000000 17.527225
LeftHand -15.705259 -0.000000 -16.790589
LeftHandThumb1 -26.253704 0.000000 33.147579
Head 15.607021 -4.847760 -7.085664
1494
root 3.828483 37.140011 2.181619 -25.357705 0.771201 13.077476
RightUpLeg 24.304769 -4.638660 -8.666614
RightLeg 18.164535 -0.000000 -0.000000
RightFoot -23.780409 -17.601973 7.545986
RightToeBase 4.765993 -0.000000 -0.000000
LeftUpLeg -70.904923 7.181840 -9.024508
LeftLeg 99.323454 -0.000000 -0.000000
LeftFoot 7.657471 21.254557 -26.925330
LeftToeBase 2.468304 -0.000000 -0.000000
Spine 29.323603 14.191515 -0.360628
RightShoulder 3.440021 -14.853643 -17.314443
RightArm 27.689037 17.672722 49.334257
RightForeArm 29.703883 0.000000 87.307568
RightHand 7.637084 -0.000000 -21.644538
RightHandThumb1 -24.326973 -0.000000 -32.862282
LeftShoulder -32.798813 34.864095 -9.545190
LeftArm 24.246000 -11.184439 -74.023344
LeftForeArm 34.419653 -0.000000 17.685845
LeftHand -15.657716 -0.000000 -16.858435
LeftHandThumb1 -26.253704 0.000000 33.147579
Head 15.610516 -4.842698 -7.038542
1495
root 3.811548 37.129590 2.169821 -25.293527 0.778798 12.998041
RightUpLeg 24.195533 -4.727817 -8.561094
RightLeg 18.223166 -0.000000 -0.000000
RightFoot -23.794885 -17.616648 7.622350
RightToeBase 4.609246 -0.000000 -0.000000
LeftUpLeg -70.995703 7.503601 -9.176885
LeftLeg 99.286990 -0.000000 -0.000000
LeftFoot 7.567238 21.228662 -27.046109
LeftToeBase 2.408389 -0.000000 -0.000000
Spine 29.284219 14.197701 -0.285103
RightShoulder 3.413070 -14.893181 -17.264717
RightArm 27.695443 17.686747 49.301399
RightForeArm 30.007429 -0.000000 87.247415
RightHand 7.739916 -0.000000 -21.470694
RightHandThumb1 -24.326973 -0.000000 -32.862282
LeftShoulder -32.800502 34.793220 -9.535388
LeftArm 24.199803 -11.383129 -74.027475
LeftForeArm 34.780689 -0.000000 17.913469
LeftHand -15.638409 -0.000000 -17.066350
LeftHandThumb1 -26.253704 0.000000 33.147579
Head 15.593323 -4.825851 -6.990853
1496
root 3.789243 37.118969 2.158802 -25.245274 0.801598 12.923934
RightUpLeg 24.110033 -4.815600 -8.451087
RightLeg 18.291534 -0.000000 -0.000000
RightFoot -23.698357 -17.952762 7.198723
RightToeBase 4.643601 -0.000000 -0.000000
LeftUpLeg -71.063512 7.876436 -9.340335
LeftLeg 99.276852 -0.000000 -0.000000
LeftFoot 7.473341 21.183016 -27.183988
LeftToeBase 2.354650 -0.000000 -0.000000
Spine 29.269594 14.215866 -0.235322
RightShoulder 3.383966 -14.892302 -17.194084
RightArm 27.647786 17.726659 49.283261
RightForeArm 30.069376 -0.000000 87.240888
RightHand 7.792243 -0.000000 -21.202604
RightHandThumb1 -24.326973 -0.000000 -32.862282
LeftShoulder -32.792474 34.730354 -9.506936
LeftArm 24.157741 -11.552605 -74.006401
LeftForeArm 35.061005 -0.000000 18.217860
LeftHand -15.585289 0.000000 -17.125926
LeftHandThumb1 -26.253704 0.000000 33.147579
Head 15.559932 -4.821929 -6.912522
1497
root 3.768913 37.109364 2.146635 -25.187640 0.820167 12.850815
RightUpLeg 24.011023 -4.918474 -8.364270
RightLeg 18.359675 -0.000000 -0.000000
RightFoot -23.718447 -18.010524 7.154988
RightToeBase 4.609733 -0.000000 -0.000000
LeftUpLeg -71.126465 8.304962 -9.526468
LeftLeg 99.282523 -0.000000 -0.000000
LeftFoot 7.380511 21.117565 -27.231095
LeftToeBase 2.309102 -0.000000 -0.000000
Spine 29.249365 14.243768 -0.160277
RightShoulder 3.355547 -14.901729 -17.138838
RightArm 27.571530 17.805865 49.272347
RightForeArm 29.918904 0.000000 87.298428
RightHand 7.754170 -0.000000 -20.919569
RightHandThumb1 -24.326973 -0.000000 -32.862282
LeftShoulder -32.752428 34.657517 -9.497146
LeftArm 24.104050 -11.672912 -73.923217
LeftForeArm 35.144754 -0.000000 18.553320
LeftHand -15.671413 -0.000000 -16.956649
LeftHandThumb1 -26.253704 0.000000 33.147579
Head 15.530034 -4.805983 -6.843629
